<svg xmlns="http://www.w3.org/2000/svg" width="120" height="120" viewBox="0 0 120 120">
  <defs>
    <linearGradient id="tile" x1="0" y1="0" x2="1" y2="1">
      <stop offset="0" stop-color="#7c3aed"/>
      <stop offset="0.55" stop-color="#4f46e5"/>
      <stop offset="1" stop-color="#06b6d4"/>
    </linearGradient>
    <linearGradient id="glass" x1="0" y1="0" x2="0" y2="1">
      <stop offset="0" stop-color="#ffffff" stop-opacity="0.40"/>
      <stop offset="1" stop-color="#ffffff" stop-opacity="0.12"/>
    </linearGradient>
    <linearGradient id="sheen" x1="0" y1="0" x2="1" y2="1">
      <stop offset="0" stop-color="#ffffff" stop-opacity="0.7"/>
      <stop offset="0.5" stop-color="#ffffff" stop-opacity="0"/>
    </linearGradient>
  </defs>
  <rect x="6" y="6" width="108" height="108" rx="28" fill="url(#tile)"/>
  <rect x="6" y="6" width="108" height="108" rx="28" fill="url(#sheen)" opacity="0.35"/>
  <g transform="translate(0 -5)">
    <rect x="26" y="40" width="68" height="50" rx="15" fill="url(#glass)" stroke="#ffffff" stroke-opacity="0.7" stroke-width="1.5"/>
    <path d="M26 55 A15 15 0 0 1 41 40 L79 40 A15 15 0 0 1 94 55 L94 57 L26 57 Z" fill="#ffffff" fill-opacity="0.22"/>
    <rect x="36" y="69" width="30" height="6" rx="3" fill="#ffffff" fill-opacity="0.75"/>
    <circle cx="80" cy="72" r="9" fill="#ffffff" fill-opacity="0.9"/>
    <circle cx="80" cy="72" r="4" fill="#4f46e5" fill-opacity="0.5"/>
  </g>
</svg>
